<?xml version="1.0" ?><svg height="36px" version="1.1" viewBox="0 0 60 36" width="60px" xmlns="http://www.w3.org/2000/svg" xmlns:xlink="http://www.w3.org/1999/xlink"><title/><desc/><defs/><g fill="none" fill-rule="evenodd" id="Page-1" stroke="none" stroke-linecap="round" stroke-width="1"><g id="Icons" stroke="#d83e3e" stroke-width="2" transform="translate(-359.000000, -1441.000000)"><g id="93--Bicycle-Parking--(cityscape,-building,-city)" transform="translate(360.000000, 1441.000000)"><path d="M16,9.9982 C11.371,7.9722 7.198,8.6322 4,10.9982" id="Stroke-1170"/><path d="M36,5.9982 L16,5.9982" id="Stroke-1171"/><path d="M18,3.9982 L18,5.9982" id="Stroke-1172"/><path d="M21,2.9982 L15,2.9982" id="Stroke-1173"/><path d="M47,23.9982 L44.031,9.1112" id="Stroke-1174"/><path d="M36,5.9982 L44.031,9.1112" id="Stroke-1175"/><path d="M18,5.9982 L29,23.9982" id="Stroke-1176"/><path d="M29,23.9982 L40,7.9982" id="Stroke-1177"/><path d="M29,23.9982 L11,23.9982" id="Stroke-1178"/><path d="M11,23.9982 L18,5.9982" id="Stroke-1179"/><path d="M22,23.9982 C22,30.0732 17.075,34.9982 11,34.9982 C4.925,34.9982 0,30.0732 0,23.9982 C0,17.9232 4.925,12.9982 11,12.9982 C17.075,12.9982 22,17.9232 22,23.9982 L22,23.9982 Z" id="Stroke-1180"/><path d="M58,23.9982 C58,30.0732 53.075,34.9982 47,34.9982 C40.925,34.9982 36,30.0732 36,23.9982 C36,17.9232 40.925,12.9982 47,12.9982 C53.075,12.9982 58,17.9232 58,23.9982 L58,23.9982 Z" id="Stroke-1181"/><path d="M44,8.9982 C44,4.5762 40.422,0.9982 36,0.9982" id="Stroke-1182"/><path d="M0,34.9982 L58,34.9982" id="Stroke-1183"/><polygon id="Stroke-1184" points="58 34.9982 39 34.9982 58 9.9982" stroke-linejoin="round"/><path d="M43,4.9982 L47,4.9982" id="Stroke-1185" stroke-linejoin="round"/><polygon id="Stroke-1186" points="47 7.998 53 7.998 53 1.998 47 1.998" stroke-linejoin="round"/><path d="M2,18.9982 L11,23.9982" id="Stroke-1187" stroke-linejoin="round"/></g></g></g></svg>