<?xml version="1.0" ?><!DOCTYPE svg  PUBLIC '-//W3C//DTD SVG 1.1//EN'  'http://www.w3.org/Graphics/SVG/1.1/DTD/svg11.dtd'><svg enable-background="new 0 0 48 48" height="48px" id="Layer_1" version="1.1" viewBox="0 0 48 48" width="48px" xml:space="preserve" xmlns="http://www.w3.org/2000/svg" xmlns:xlink="http://www.w3.org/1999/xlink"><g stroke="#d83e3e" fill="#d83e3e"><path d="M39.549,40.18H8.453c-4.165,0-7.553-3.323-7.553-7.408v-0.765c0-4.083,3.388-7.405,7.553-7.405h31.096   c4.162,0,7.549,3.322,7.549,7.405v0.765C47.098,36.856,43.711,40.18,39.549,40.18z M8.453,26.602c-3.062,0-5.553,2.425-5.553,5.405   v0.765c0,2.982,2.491,5.408,5.553,5.408h31.096c3.06,0,5.549-2.426,5.549-5.408v-0.765c0-2.98-2.489-5.405-5.549-5.405H8.453z"/><path d="M42.965,26.604H5.034l3.782-14.991h30.368L42.965,26.604z M7.602,24.604h32.797l-2.773-10.991H10.374L7.602,24.604z"/><g><path d="M9.343,48H8.346c-2.357,0-4.274-1.887-4.274-4.205v-3.732c0-0.553,0.448-1,1-1s1,0.447,1,1v3.732    C6.072,45.011,7.092,46,8.346,46h0.997c1.252,0,2.271-0.988,2.271-2.204v-3.731c0-0.553,0.448-1,1-1s1,0.447,1,1v3.731    C13.614,46.114,11.698,48,9.343,48z"/><path d="M39.65,47.999h-0.993c-2.354,0-4.271-1.886-4.271-4.204v-3.732c0-0.553,0.447-1,1-1s1,0.447,1,1v3.732    c0,1.216,1.019,2.204,2.271,2.204h0.993c1.255,0,2.276-0.988,2.276-2.204v-3.732c0-0.553,0.447-1,1-1s1,0.447,1,1v3.732    C43.927,46.113,42.009,47.999,39.65,47.999z"/></g><g><path d="M11.858,32.389c0,0.977-0.809,1.772-1.812,1.772c-0.997,0-1.809-0.797-1.809-1.772c0-0.977,0.812-1.768,1.809-1.768    C11.05,30.621,11.858,31.412,11.858,32.389z"/><path d="M39.762,32.389c0,0.977-0.813,1.772-1.81,1.772c-1.003,0-1.812-0.797-1.812-1.772c0-0.977,0.809-1.768,1.812-1.768    C38.949,30.621,39.762,31.412,39.762,32.389z"/></g><path d="M30.559,33.389H17.441c-0.552,0-1-0.447-1-1s0.448-1,1-1h13.118c0.553,0,1,0.447,1,1S31.111,33.389,30.559,33.389z"/><g><path d="M6.318,22.466H1c-0.552,0-1-0.448-1-1s0.448-1,1-1h5.318c0.552,0,1,0.448,1,1S6.87,22.466,6.318,22.466z"/><path d="M47,22.466h-5.318c-0.553,0-1-0.448-1-1s0.447-1,1-1H47c0.553,0,1,0.448,1,1S47.553,22.466,47,22.466z"/></g><g><path d="M16.641,10.119c-2.84,0-5.151-2.271-5.151-5.061C11.49,2.269,13.801,0,16.642,0c2.836,0,5.144,2.269,5.144,5.058    C21.786,7.849,19.478,10.119,16.641,10.119z M16.642,2c-1.738,0-3.152,1.372-3.152,3.058c0,1.688,1.414,3.061,3.151,3.061    c1.734,0,3.145-1.373,3.145-3.061C19.786,3.372,18.375,2,16.642,2z"/><path d="M31.357,10.119c-2.837,0-5.145-2.271-5.145-5.061C26.213,2.269,28.521,0,31.357,0c2.841,0,5.151,2.269,5.151,5.058    C36.509,7.849,34.198,10.119,31.357,10.119z M31.357,2c-1.734,0-3.145,1.372-3.145,3.058c0,1.688,1.41,3.061,3.145,3.061    c1.737,0,3.151-1.373,3.151-3.061C34.509,3.372,33.095,2,31.357,2z"/></g></g></svg>