<?xml version="1.0" ?><svg height="51px" version="1.1" viewBox="0 0 60 51" width="60px" xmlns="http://www.w3.org/2000/svg" xmlns:xlink="http://www.w3.org/1999/xlink"><title/><desc/><defs/><g fill="none" fill-rule="evenodd" id="Page-1" stroke="none" stroke-linecap="round" stroke-linejoin="round" stroke-width="1"><g id="Icons" stroke="#d83e3e" stroke-width="2" transform="translate(-959.000000, -1438.000000)"><g id="98--Park--(cityscape,-building,-city)" transform="translate(960.000000, 1438.000000)"><path d="M53,39.9982 C52.269,39.9982 51.581,40.1632 50.955,40.4452 C50.968,40.2952 51,40.1512 51,39.9982 C51,37.2372 48.761,34.9982 46,34.9982 C44.608,34.9982 43.351,35.5692 42.444,36.4872 C41.493,34.4292 39.416,32.9982 37,32.9982 C33.686,32.9982 31,35.6842 31,38.9982 C31,39.3862 31.04,39.7642 31.11,40.1312 C30.752,40.0502 30.383,39.9982 30,39.9982 C27.239,39.9982 25,42.2372 25,44.9982 C25,47.7592 27.239,49.9982 30,49.9982 L53,49.9982 C55.761,49.9982 58,47.7592 58,44.9982 C58,42.2372 55.761,39.9982 53,39.9982 L53,39.9982 Z" id="Stroke-513"/><path d="M0,49.9982 L58,49.9982" id="Stroke-514"/><path d="M41,49.9982 L41,42.9982" id="Stroke-515"/><path d="M46,44.9982 L41,49.9982" id="Stroke-516"/><path d="M36,44.9982 L41,49.9982" id="Stroke-517"/><path d="M58,12.9982 C58,19.6252 52.627,24.9982 46,24.9982 C39.373,24.9982 34,19.6252 34,12.9982 C34,6.3712 39.373,0.9982 46,0.9982 C52.627,0.9982 58,6.3712 58,12.9982 L58,12.9982 Z" id="Stroke-1244"/><path d="M43,13.9982 L46,16.9982" id="Stroke-1245"/><path d="M49,13.9982 L46,16.9982" id="Stroke-1246"/><path d="M46,16.9982 L46,34.9982" id="Stroke-1247"/><polygon id="Stroke-1251" points="5 49.998 17 49.998 17 45.998 5 45.998"/><path d="M13,36.9982 L9,36.9982 C9,40.9982 7.764,45.9982 5,45.9982 L17,45.9982 C14.236,45.9982 13,40.9982 13,36.9982 L13,36.9982 Z" id="Stroke-1252"/><path d="M5,30.9982 C5,34.3122 7.686,36.9982 11,36.9982 C14.314,36.9982 17,34.3122 17,30.9982 L5,30.9982 L5,30.9982 Z" id="Stroke-1253"/><path d="M11,30.9982 L11,23.9982" id="Stroke-1254"/><path d="M1,23.9982 C1,21.2342 3.236,18.9982 6,18.9982 C8.764,18.9982 11,21.2342 11,23.9982" id="Stroke-1255"/><path d="M11,23.9982 C11,21.2342 13.236,18.9982 16,18.9982 C18.764,18.9982 21,21.2342 21,23.9982" id="Stroke-1256"/></g></g></g></svg>