<?xml version="1.0" ?><!DOCTYPE svg  PUBLIC '-//W3C//DTD SVG 1.1//EN'  'http://www.w3.org/Graphics/SVG/1.1/DTD/svg11.dtd'><svg enable-background="new 0 0 48 48" height="48px" id="Layer_1" version="1.1" viewBox="0 0 48 48" width="48px" xml:space="preserve" xmlns="http://www.w3.org/2000/svg" xmlns:xlink="http://www.w3.org/1999/xlink"><g stroke="#d83e3e" fill="#d83e3e"><path d="M11.785,23.388C5.287,23.388,0,18.143,0,11.695C0,5.248,5.287,0.002,11.785,0.002c6.498,0,11.785,5.246,11.785,11.693   C23.57,18.143,18.283,23.388,11.785,23.388z M11.785,2.002C6.39,2.002,2,6.35,2,11.695s4.39,9.693,9.785,9.693   s9.785-4.349,9.785-9.693S17.181,2.002,11.785,2.002z"/><path d="M11.785,47.145c-0.552,0-1-0.447-1-1V22.996c0-0.552,0.448-1,1-1s1,0.448,1,1v23.148   C12.785,46.697,12.337,47.145,11.785,47.145z"/><path d="M47,48H4.638c-0.552,0-1-0.447-1-1s0.448-1,1-1H47c0.553,0,1,0.447,1,1S47.553,48,47,48z"/><path d="M17.754,13.281h-5.969c-0.552,0-1-0.448-1-1V4.908c0-0.552,0.448-1,1-1s1,0.448,1,1v6.373h4.969c0.552,0,1,0.448,1,1   S18.306,13.281,17.754,13.281z"/><path d="M42.93,44.908H24.574c-2.689,0-4.877-2.172-4.877-4.842V29.711c0-2.672,2.188-4.846,4.877-4.846H42.93   c2.689,0,4.877,2.174,4.877,4.846v10.355C47.807,42.736,45.619,44.908,42.93,44.908z M24.574,26.865   c-1.586,0-2.877,1.276-2.877,2.846v10.355c0,1.567,1.291,2.842,2.877,2.842H42.93c1.586,0,2.877-1.274,2.877-2.842V29.711   c0-1.569-1.291-2.846-2.877-2.846H24.574z"/><path d="M40.107,25.934c-0.553,0-1-0.447-1-1v-3.294H28.396v3.294c0,0.553-0.447,1-1,1s-1-0.447-1-1v-4.294c0-0.552,0.447-1,1-1   h12.711c0.553,0,1,0.448,1,1v4.294C41.107,25.486,40.66,25.934,40.107,25.934z"/></g></svg>